<svg width="182" height="25" viewBox="0 0 182 25" fill="none" xmlns="http://www.w3.org/2000/svg">
<path d="M4.60938 24H0.125V1.59375H4.60938V10.5625H13.5625V1.59375H18.0469V24H13.5625V15.0469H4.60938V24ZM37.7188 24H36.6875L35.0312 21.7031C34.625 22.0677 34.1927 22.4115 33.7344 22.7344C33.2865 23.0469 32.8125 23.3229 32.3125 23.5625C31.8125 23.7917 31.2969 23.974 30.7656 24.1094C30.2448 24.2448 29.7135 24.3125 29.1719 24.3125C27.9948 24.3125 26.8854 24.1146 25.8438 23.7188C24.8125 23.3229 23.9062 22.75 23.125 22C22.3542 21.2396 21.7448 20.3125 21.2969 19.2188C20.849 18.125 20.625 16.8802 20.625 15.4844C20.625 14.1823 20.849 12.9896 21.2969 11.9062C21.7448 10.8125 22.3542 9.875 23.125 9.09375C23.9062 8.3125 24.8125 7.70833 25.8438 7.28125C26.8854 6.84375 27.9948 6.625 29.1719 6.625C29.7135 6.625 30.25 6.69271 30.7812 6.82812C31.3125 6.96354 31.8281 7.15104 32.3281 7.39062C32.8281 7.63021 33.3021 7.91146 33.75 8.23438C34.2083 8.55729 34.6354 8.90625 35.0312 9.28125L36.6875 7.29688H37.7188V24ZM33.4219 15.4844C33.4219 14.901 33.3073 14.3385 33.0781 13.7969C32.8594 13.2448 32.5573 12.7604 32.1719 12.3438C31.7865 11.9167 31.3333 11.5781 30.8125 11.3281C30.3021 11.0677 29.7552 10.9375 29.1719 10.9375C28.5885 10.9375 28.0365 11.0365 27.5156 11.2344C27.0052 11.4323 26.5573 11.724 26.1719 12.1094C25.7969 12.4948 25.5 12.974 25.2812 13.5469C25.0625 14.1094 24.9531 14.7552 24.9531 15.4844C24.9531 16.2135 25.0625 16.8646 25.2812 17.4375C25.5 18 25.7969 18.474 26.1719 18.8594C26.5573 19.2448 27.0052 19.5365 27.5156 19.7344C28.0365 19.9323 28.5885 20.0312 29.1719 20.0312C29.7552 20.0312 30.3021 19.9062 30.8125 19.6562C31.3333 19.3958 31.7865 19.0573 32.1719 18.6406C32.5573 18.2135 32.8594 17.7292 33.0781 17.1875C33.3073 16.6354 33.4219 16.0677 33.4219 15.4844ZM45.25 24H40.9844V7.26562H42.0156L43.4219 8.89062C44.1094 8.26562 44.8854 7.78646 45.75 7.45312C46.625 7.10938 47.5365 6.9375 48.4844 6.9375C49.5052 6.9375 50.4688 7.13542 51.375 7.53125C52.2812 7.91667 53.0729 8.45312 53.75 9.14062C54.4271 9.81771 54.9583 10.6146 55.3438 11.5312C55.7396 12.4375 55.9375 13.4062 55.9375 14.4375V24H51.6719V14.4375C51.6719 14 51.5885 13.5885 51.4219 13.2031C51.2552 12.8073 51.026 12.4635 50.7344 12.1719C50.4427 11.8802 50.1042 11.651 49.7188 11.4844C49.3333 11.3177 48.9219 11.2344 48.4844 11.2344C48.0365 11.2344 47.6146 11.3177 47.2188 11.4844C46.8229 11.651 46.4792 11.8802 46.1875 12.1719C45.8958 12.4635 45.6667 12.8073 45.5 13.2031C45.3333 13.5885 45.25 14 45.25 14.4375V24ZM63.2812 24H58.9844V0.609375H63.2812V15.3594L69.6406 7.29688H74.5469L69 14.2656L74.5469 24H69.6406L66.25 17.9219L63.2812 21.8594V24ZM85.4219 24H75.6719V19.75H85.4219C85.7135 19.75 85.9635 19.6458 86.1719 19.4375C86.3802 19.2292 86.4844 18.9792 86.4844 18.6875C86.4844 18.3854 86.3802 18.1875 86.1719 18.0938C85.9635 18 85.7135 17.9531 85.4219 17.9531H80.9844C80.2448 17.9531 79.5521 17.8125 78.9062 17.5312C78.2604 17.25 77.6979 16.8698 77.2188 16.3906C76.7396 15.901 76.3594 15.3333 76.0781 14.6875C75.8073 14.0417 75.6719 13.349 75.6719 12.6094C75.6719 11.8698 75.8073 11.1771 76.0781 10.5312C76.3594 9.88542 76.7396 9.32292 77.2188 8.84375C77.6979 8.36458 78.2604 7.98958 78.9062 7.71875C79.5521 7.4375 80.2448 7.29688 80.9844 7.29688H89.625V11.5469H80.9844C80.6927 11.5469 80.4427 11.651 80.2344 11.8594C80.026 12.0677 79.9219 12.3177 79.9219 12.6094C79.9219 12.9115 80.026 13.1719 80.2344 13.3906C80.4427 13.599 80.6927 13.7031 80.9844 13.7031H85.4219C86.151 13.7031 86.8385 13.8281 87.4844 14.0781C88.1302 14.3177 88.6927 14.6562 89.1719 15.0938C89.651 15.5312 90.0312 16.0573 90.3125 16.6719C90.5938 17.2865 90.7344 17.9583 90.7344 18.6875C90.7344 19.4271 90.5938 20.1198 90.3125 20.7656C90.0312 21.401 89.651 21.9635 89.1719 22.4531C88.6927 22.9323 88.1302 23.3125 87.4844 23.5938C86.8385 23.8646 86.151 24 85.4219 24ZM106.922 24H102.438V1.59375H106.922V10.5625H115.875V1.59375H120.359V24H115.875V15.0469H106.922V24ZM140 15.4844C140 16.7344 139.776 17.901 139.328 18.9844C138.88 20.0573 138.271 20.9896 137.5 21.7812C136.729 22.5625 135.823 23.1823 134.781 23.6406C133.75 24.0885 132.641 24.3125 131.453 24.3125C130.276 24.3125 129.167 24.0885 128.125 23.6406C127.094 23.1823 126.188 22.5625 125.406 21.7812C124.635 20.9896 124.026 20.0573 123.578 18.9844C123.13 17.901 122.906 16.7344 122.906 15.4844C122.906 14.2135 123.13 13.0365 123.578 11.9531C124.026 10.8698 124.635 9.9375 125.406 9.15625C126.188 8.36458 127.094 7.74479 128.125 7.29688C129.167 6.84896 130.276 6.625 131.453 6.625C132.641 6.625 133.75 6.83854 134.781 7.26562C135.823 7.68229 136.729 8.28125 137.5 9.0625C138.271 9.83333 138.88 10.7656 139.328 11.8594C139.776 12.9427 140 14.151 140 15.4844ZM135.703 15.4844C135.703 14.7969 135.589 14.1771 135.359 13.625C135.141 13.0625 134.839 12.5833 134.453 12.1875C134.068 11.7812 133.615 11.474 133.094 11.2656C132.583 11.0469 132.036 10.9375 131.453 10.9375C130.87 10.9375 130.318 11.0469 129.797 11.2656C129.286 11.474 128.839 11.7812 128.453 12.1875C128.078 12.5833 127.781 13.0625 127.562 13.625C127.344 14.1771 127.234 14.7969 127.234 15.4844C127.234 16.1302 127.344 16.7292 127.562 17.2812C127.781 17.8333 128.078 18.3125 128.453 18.7188C128.839 19.125 129.286 19.4479 129.797 19.6875C130.318 19.9167 130.87 20.0312 131.453 20.0312C132.036 20.0312 132.583 19.9219 133.094 19.7031C133.615 19.4844 134.068 19.1771 134.453 18.7812C134.839 18.3854 135.141 17.9062 135.359 17.3438C135.589 16.7812 135.703 16.1615 135.703 15.4844ZM163.641 24H159.391V13.375C159.391 13.0833 159.333 12.8073 159.219 12.5469C159.115 12.2865 158.964 12.0573 158.766 11.8594C158.568 11.6615 158.339 11.5104 158.078 11.4062C157.818 11.2917 157.542 11.2344 157.25 11.2344C156.958 11.2344 156.682 11.2917 156.422 11.4062C156.172 11.5104 155.948 11.6615 155.75 11.8594C155.562 12.0573 155.411 12.2865 155.297 12.5469C155.193 12.8073 155.141 13.0833 155.141 13.375V24H150.875V13.375C150.875 13.0833 150.818 12.8073 150.703 12.5469C150.599 12.2865 150.448 12.0573 150.25 11.8594C150.052 11.6615 149.823 11.5104 149.562 11.4062C149.302 11.2917 149.026 11.2344 148.734 11.2344C148.443 11.2344 148.167 11.2917 147.906 11.4062C147.656 11.5104 147.432 11.6615 147.234 11.8594C147.047 12.0573 146.896 12.2865 146.781 12.5469C146.677 12.8073 146.625 13.0833 146.625 13.375V24H142.359V7.26562H143.391L144.547 8.54688C145.141 8.04688 145.792 7.66146 146.5 7.39062C147.219 7.10938 147.964 6.96875 148.734 6.96875C149.516 6.96875 150.276 7.11458 151.016 7.40625C151.766 7.69792 152.422 8.20312 152.984 8.92188C153.245 8.56771 153.542 8.26562 153.875 8.01562C154.208 7.76562 154.557 7.5625 154.922 7.40625C155.297 7.25 155.682 7.14062 156.078 7.07812C156.474 7.00521 156.865 6.96875 157.25 6.96875C158.135 6.96875 158.964 7.13542 159.734 7.46875C160.516 7.80208 161.193 8.26042 161.766 8.84375C162.349 9.41667 162.807 10.0938 163.141 10.875C163.474 11.6562 163.641 12.4896 163.641 13.375V24ZM173.422 19.9062C173.589 19.9583 173.755 19.9948 173.922 20.0156C174.089 20.026 174.255 20.0312 174.422 20.0312C174.839 20.0312 175.24 19.974 175.625 19.8594C176.01 19.7448 176.37 19.5833 176.703 19.375C177.047 19.1562 177.349 18.8958 177.609 18.5938C177.88 18.2812 178.099 17.9375 178.266 17.5625L181.391 20.7031C180.995 21.2656 180.536 21.7708 180.016 22.2188C179.505 22.6667 178.948 23.0469 178.344 23.3594C177.75 23.6719 177.12 23.9062 176.453 24.0625C175.797 24.2292 175.12 24.3125 174.422 24.3125C173.245 24.3125 172.135 24.0938 171.094 23.6562C170.062 23.2188 169.156 22.6094 168.375 21.8281C167.604 21.0469 166.995 20.1198 166.547 19.0469C166.099 17.9635 165.875 16.776 165.875 15.4844C165.875 14.1615 166.099 12.9531 166.547 11.8594C166.995 10.7656 167.604 9.83333 168.375 9.0625C169.156 8.29167 170.062 7.69271 171.094 7.26562C172.135 6.83854 173.245 6.625 174.422 6.625C175.12 6.625 175.802 6.70833 176.469 6.875C177.135 7.04167 177.766 7.28125 178.359 7.59375C178.964 7.90625 179.526 8.29167 180.047 8.75C180.568 9.19792 181.026 9.70312 181.422 10.2656L173.422 19.9062ZM175.609 11.1094C175.411 11.0365 175.214 10.9896 175.016 10.9688C174.828 10.9479 174.63 10.9375 174.422 10.9375C173.839 10.9375 173.286 11.0469 172.766 11.2656C172.255 11.474 171.807 11.776 171.422 12.1719C171.047 12.5677 170.75 13.0469 170.531 13.6094C170.312 14.1615 170.203 14.7865 170.203 15.4844C170.203 15.6406 170.208 15.8177 170.219 16.0156C170.24 16.2135 170.266 16.4167 170.297 16.625C170.339 16.8229 170.385 17.0156 170.438 17.2031C170.49 17.3906 170.557 17.5573 170.641 17.7031L175.609 11.1094Z" fill="white"/>
</svg>
